<svg xmlns="http://www.w3.org/2000/svg" height="48" width="48"><path d="M8.4 44.2q-1.9 0-3.25-1.35T3.8 39.6h4.6Zm-4.6-9v-4.55h4.6v4.55Zm0-8.95v-4.6h4.6v4.6Zm0-8.95v-4.6h4.6v4.6Zm0-8.95q0-1.8 1.35-3.175Q6.5 3.8 8.4 3.8v4.55Zm8.95 35.85v-4.6h4.6v4.6Zm0-35.85V3.8h4.6v4.55Zm9 35.85v-4.6h4.6v4.6Zm0-35.85V3.8h4.6v4.55ZM30.7 44.2v-4.6h4.55v4.6Zm0-35.85V3.8h4.55v4.55Zm8.95 35.85v-4.6h4.55q0 1.85-1.375 3.225T39.65 44.2Zm0-9v-4.55h4.55v4.55Zm0-8.95v-4.6h4.55v4.6Zm0-8.95v-4.6h4.55v4.6Zm0-8.95V3.8q1.8 0 3.175 1.375Q44.2 6.55 44.2 8.35Z"/></svg>